<?xml version="1.0" encoding="UTF-8" standalone="no"?>
<svg
   xmlns:dc="http://purl.org/dc/elements/1.1/"
   xmlns:cc="http://creativecommons.org/ns#"
   xmlns:rdf="http://www.w3.org/1999/02/22-rdf-syntax-ns#"
   xmlns:svg="http://www.w3.org/2000/svg"
   xmlns="http://www.w3.org/2000/svg"
   xmlns:sodipodi="http://sodipodi.sourceforge.net/DTD/sodipodi-0.dtd"
   xmlns:inkscape="http://www.inkscape.org/namespaces/inkscape"
   viewBox="0 0 6633.3335 2211.0991"
   height="2211.0991"
   width="6633.3335"
   xml:space="preserve"
   id="svg2"
   version="1.1"
   sodipodi:docname="que_es_sgbd.svg"
   inkscape:version="0.92.1 r15371"><sodipodi:namedview
     pagecolor="#ffffff"
     bordercolor="#666666"
     borderopacity="1"
     objecttolerance="10"
     gridtolerance="10"
     guidetolerance="10"
     inkscape:pageopacity="0"
     inkscape:pageshadow="2"
     inkscape:window-width="1858"
     inkscape:window-height="1057"
     id="namedview10681"
     showgrid="false"
     inkscape:zoom="0.10062947"
     inkscape:cx="2599.9294"
     inkscape:cy="3316.6667"
     inkscape:window-x="54"
     inkscape:window-y="-8"
     inkscape:window-maximized="1"
     inkscape:current-layer="svg2" /><metadata
     id="metadata8"><rdf:RDF><cc:Work
         rdf:about=""><dc:format>image/svg+xml</dc:format><dc:type
           rdf:resource="http://purl.org/dc/dcmitype/StillImage" /><dc:title></dc:title></cc:Work></rdf:RDF></metadata><defs
     id="defs6"><clipPath
       id="clipPath520"
       clipPathUnits="userSpaceOnUse"><path
         id="path518"
         d="M 0,0 H 49750 V 16583.3 H 0 Z"
         inkscape:connector-curvature="0" /></clipPath></defs><g
     id="g13034"
     transform="translate(-0.00280995,4422.2401)"><g
       style="fill:#dba86a;fill-opacity:1"
       id="g14"
       transform="matrix(0.40695332,0,0,-0.40695332,0,2211.0988)"><path
         inkscape:connector-curvature="0"
         d="M 16300,10866.7 H 0 V 16300 h 16300 v -5433.3"
         style="fill:#dba86a;fill-opacity:1;fill-rule:nonzero;stroke:none"
         id="path16" /></g><g
       transform="translate(-1305.1435,-4422.2345)"
       id="g12859"><g
         transform="matrix(0.37388799,0,0,-0.37388799,0,6633.3333)"
         id="g174"><path
           id="path176"
           style="fill:#3068a9;fill-opacity:1;fill-rule:nonzero;stroke:none"
           d="m 13848.6,15548.6 c 0,-49.3 -39.9,-89.2 -89.1,-89.2 h -2929.4 c -49.2,0 -89.1,39.9 -89.1,89.2 v 662.2 c 0,49.3 39.9,89.2 89.1,89.2 h 2929.4 c 49.2,0 89.1,-39.9 89.1,-89.2 v -662.2"
           inkscape:connector-curvature="0" /></g><g
         transform="matrix(0.37045999,0,0,-0.37045999,0,6633.3333)"
         id="g178"><path
           id="path180"
           style="fill:#ffffff;fill-opacity:1;fill-rule:nonzero;stroke:none"
           d="m 11156.8,16235.2 c 0,-35.8 -29,-64.8 -64.8,-64.8 -35.8,0 -64.8,29 -64.8,64.8 0,35.8 29,64.8 64.8,64.8 35.8,0 64.8,-29 64.8,-64.8"
           inkscape:connector-curvature="0" /></g><g
         transform="matrix(0.37045999,0,0,-0.37045999,0,6633.3333)"
         id="g182"><path
           id="path184"
           style="fill:#ffffff;fill-opacity:1;fill-rule:nonzero;stroke:none"
           d="m 11383.6,16235.2 c 0,-35.8 -29,-64.8 -64.8,-64.8 -35.8,0 -64.8,29 -64.8,64.8 0,35.8 29,64.8 64.8,64.8 35.8,0 64.8,-29 64.8,-64.8"
           inkscape:connector-curvature="0" /></g><g
         transform="matrix(0.36088932,0,0,-0.36088932,0,6633.3333)"
         id="g186"><path
           id="path188"
           style="fill:#ffffff;fill-opacity:1;fill-rule:nonzero;stroke:none"
           d="m 11452.7,16233.5 c 0,-36.7 -29.8,-66.5 -66.5,-66.5 -36.7,0 -66.5,29.8 -66.5,66.5 0,36.7 29.8,66.5 66.5,66.5 36.7,0 66.5,-29.8 66.5,-66.5"
           inkscape:connector-curvature="0" /></g><g
         transform="matrix(0.36088932,0,0,-0.36088932,0,6633.3333)"
         id="g190"><path
           id="path192"
           style="fill:#ffffff;fill-opacity:1;fill-rule:nonzero;stroke:none"
           d="m 11685.5,16233.5 c 0,-36.7 -29.8,-66.5 -66.5,-66.5 -36.8,0 -66.6,29.8 -66.6,66.5 0,36.7 29.8,66.5 66.6,66.5 36.7,0 66.5,-29.8 66.5,-66.5"
           inkscape:connector-curvature="0" /></g><g
         transform="matrix(0.36567466,0,0,-0.36567466,0,6633.3333)"
         id="g194"><path
           id="path196"
           style="fill:#ffffff;fill-opacity:1;fill-rule:nonzero;stroke:none"
           d="m 11417.7,16234.4 c 0,-36.3 -29.4,-65.7 -65.7,-65.7 -36.2,0 -65.6,29.4 -65.6,65.7 0,36.2 29.4,65.6 65.6,65.6 36.3,0 65.7,-29.4 65.7,-65.6"
           inkscape:connector-curvature="0" /></g><g
         transform="matrix(0.36567466,0,0,-0.36567466,0,6633.3333)"
         id="g198"><path
           id="path200"
           style="fill:#ffffff;fill-opacity:1;fill-rule:nonzero;stroke:none"
           d="m 11647.4,16234.4 c 0,-36.3 -29.4,-65.7 -65.6,-65.7 -36.3,0 -65.7,29.4 -65.7,65.7 0,36.2 29.4,65.6 65.7,65.6 36.2,0 65.6,-29.4 65.6,-65.6"
           inkscape:connector-curvature="0" /></g><g
         transform="matrix(0.37045999,0,0,-0.37045999,0,6633.3333)"
         id="g202"><path
           id="path204"
           style="fill:#ffffff;fill-opacity:1;fill-rule:nonzero;stroke:none"
           d="m 11626.5,16235.2 c 0,-35.8 -29,-64.8 -64.8,-64.8 -35.7,0 -64.8,29 -64.8,64.8 0,35.8 29.1,64.8 64.8,64.8 35.8,0 64.8,-29 64.8,-64.8"
           inkscape:connector-curvature="0" /></g><g
         transform="matrix(0.36088932,0,0,-0.36088932,0,6633.3333)"
         id="g206"><path
           id="path208"
           style="fill:#ffffff;fill-opacity:1;fill-rule:nonzero;stroke:none"
           d="m 11934.9,16233.5 c 0,-36.7 -29.8,-66.5 -66.5,-66.5 -36.8,0 -66.5,29.8 -66.5,66.5 0,36.7 29.7,66.5 66.5,66.5 36.7,0 66.5,-29.8 66.5,-66.5"
           inkscape:connector-curvature="0" /></g><g
         transform="matrix(0.36567466,0,0,-0.36567466,0,6633.3333)"
         id="g210"><path
           id="path212"
           style="fill:#ffffff;fill-opacity:1;fill-rule:nonzero;stroke:none"
           d="m 11893.6,16234.4 c 0,-36.3 -29.4,-65.7 -65.7,-65.7 -36.2,0 -65.6,29.4 -65.6,65.7 0,36.2 29.4,65.6 65.6,65.6 36.3,0 65.7,-29.4 65.7,-65.6"
           inkscape:connector-curvature="0" /></g><g
         transform="matrix(0.37045999,0,0,-0.37045999,0,6633.3333)"
         id="g214"><path
           id="path216"
           style="fill:#ffffff;fill-opacity:1;fill-rule:nonzero;stroke:none"
           d="m 11869.5,16235.2 c 0,-35.8 -29,-64.8 -64.8,-64.8 -35.8,0 -64.8,29 -64.8,64.8 0,35.8 29,64.8 64.8,64.8 35.8,0 64.8,-29 64.8,-64.8"
           inkscape:connector-curvature="0" /></g><g
         transform="matrix(0.36088932,0,0,-0.36088932,0,6633.3333)"
         id="g218"><path
           id="path220"
           style="fill:#ffffff;fill-opacity:1;fill-rule:nonzero;stroke:none"
           d="m 12184.3,16233.5 c 0,-36.7 -29.8,-66.5 -66.5,-66.5 -36.8,0 -66.5,29.8 -66.5,66.5 0,36.7 29.7,66.5 66.5,66.5 36.7,0 66.5,-29.8 66.5,-66.5"
           inkscape:connector-curvature="0" /></g><g
         transform="matrix(0.36567466,0,0,-0.36567466,0,6633.3333)"
         id="g222"><path
           id="path224"
           style="fill:#ffffff;fill-opacity:1;fill-rule:nonzero;stroke:none"
           d="m 12139.7,16234.4 c 0,-36.3 -29.4,-65.7 -65.6,-65.7 -36.3,0 -65.7,29.4 -65.7,65.7 0,36.2 29.4,65.6 65.7,65.6 36.2,0 65.6,-29.4 65.6,-65.6"
           inkscape:connector-curvature="0" /></g><g
         transform="matrix(0.37045999,0,0,-0.37045999,0,6633.3333)"
         id="g226"><path
           id="path228"
           style="fill:#ffffff;fill-opacity:1;fill-rule:nonzero;stroke:none"
           d="m 12112.4,16235.2 c 0,-35.8 -29,-64.8 -64.8,-64.8 -35.7,0 -64.7,29 -64.7,64.8 0,35.8 29,64.8 64.7,64.8 35.8,0 64.8,-29 64.8,-64.8"
           inkscape:connector-curvature="0" /></g><g
         transform="matrix(0.36088932,0,0,-0.36088932,0,6633.3333)"
         id="g230"><path
           id="path232"
           style="fill:#ffffff;fill-opacity:1;fill-rule:nonzero;stroke:none"
           d="m 12433.7,16233.5 c 0,-36.7 -29.8,-66.5 -66.5,-66.5 -36.8,0 -66.5,29.8 -66.5,66.5 0,36.7 29.7,66.5 66.5,66.5 36.7,0 66.5,-29.8 66.5,-66.5"
           inkscape:connector-curvature="0" /></g><g
         transform="matrix(0.36567466,0,0,-0.36567466,0,6633.3333)"
         id="g234"><path
           id="path236"
           style="fill:#ffffff;fill-opacity:1;fill-rule:nonzero;stroke:none"
           d="m 12385.8,16234.4 c 0,-36.3 -29.3,-65.7 -65.6,-65.7 -36.3,0 -65.7,29.4 -65.7,65.7 0,36.2 29.4,65.6 65.7,65.6 36.3,0 65.6,-29.4 65.6,-65.6"
           inkscape:connector-curvature="0" /></g><g
         transform="matrix(0.37045999,0,0,-0.37045999,0,6633.3333)"
         id="g238"><path
           id="path240"
           style="fill:#ffffff;fill-opacity:1;fill-rule:nonzero;stroke:none"
           d="m 12355.4,16235.2 c 0,-35.8 -29,-64.8 -64.8,-64.8 -35.8,0 -64.8,29 -64.8,64.8 0,35.8 29,64.8 64.8,64.8 35.8,0 64.8,-29 64.8,-64.8"
           inkscape:connector-curvature="0" /></g><g
         transform="matrix(0.36088932,0,0,-0.36088932,0,6633.3333)"
         id="g242"><path
           id="path244"
           style="fill:#ffffff;fill-opacity:1;fill-rule:nonzero;stroke:none"
           d="m 12683.1,16233.5 c 0,-36.7 -29.8,-66.5 -66.5,-66.5 -36.7,0 -66.5,29.8 -66.5,66.5 0,36.7 29.8,66.5 66.5,66.5 36.7,0 66.5,-29.8 66.5,-66.5"
           inkscape:connector-curvature="0" /></g><g
         transform="matrix(0.36567466,0,0,-0.36567466,0,6633.3333)"
         id="g246"><path
           id="path248"
           style="fill:#ffffff;fill-opacity:1;fill-rule:nonzero;stroke:none"
           d="m 12632,16234.4 c 0,-36.3 -29.4,-65.7 -65.7,-65.7 -36.2,0 -65.6,29.4 -65.6,65.7 0,36.2 29.4,65.6 65.6,65.6 36.3,0 65.7,-29.4 65.7,-65.6"
           inkscape:connector-curvature="0" /></g><g
         transform="matrix(0.36898799,0,0,-0.36898799,0,6633.3333)"
         id="g250"><path
           id="path252"
           style="fill:#ffffff;fill-opacity:1;fill-rule:nonzero;stroke:none"
           d="m 13727.4,15916.9 c 0,-21.9 -17.8,-39.7 -39.8,-39.7 h -375.8 c -22,0 -39.7,17.8 -39.7,39.7 v 343.4 c 0,21.9 17.7,39.7 39.7,39.7 h 375.8 c 22,0 39.8,-17.8 39.8,-39.7 v -343.4"
           inkscape:connector-curvature="0" /></g><g
         transform="matrix(0.35192266,0,0,-0.35192266,0,6633.3333)"
         id="g254"><path
           id="path256"
           style="fill:#3068a9;fill-opacity:1;fill-rule:nonzero;stroke:none"
           d="m 14713,15501.7 c 0,-52.3 -42.4,-94.8 -94.7,-94.8 h -3112.2 c -52.3,0 -94.7,42.5 -94.7,94.8 v 703.6 c 0,52.3 42.4,94.7 94.7,94.7 h 3112.2 c 52.3,0 94.7,-42.4 94.7,-94.7 v -703.6"
           inkscape:connector-curvature="0" /></g><g
         transform="matrix(0.34849466,0,0,-0.34849466,0,6633.3333)"
         id="g258"><path
           id="path260"
           style="fill:#ffffff;fill-opacity:1;fill-rule:nonzero;stroke:none"
           d="m 11860,16231.1 c 0,-38 -30.8,-68.8 -68.9,-68.8 -38,0 -68.8,30.8 -68.8,68.8 0,38.1 30.8,68.9 68.8,68.9 38.1,0 68.9,-30.8 68.9,-68.9"
           inkscape:connector-curvature="0" /></g><g
         transform="matrix(0.34849466,0,0,-0.34849466,0,6633.3333)"
         id="g262"><path
           id="path264"
           style="fill:#ffffff;fill-opacity:1;fill-rule:nonzero;stroke:none"
           d="m 12101.1,16231.1 c 0,-38 -30.9,-68.8 -68.9,-68.8 -38.1,0 -68.9,30.8 -68.9,68.8 0,38.1 30.8,68.9 68.9,68.9 38,0 68.9,-30.8 68.9,-68.9"
           inkscape:connector-curvature="0" /></g><g
         transform="matrix(0.33892399,0,0,-0.33892399,0,6633.3333)"
         id="g266"><path
           id="path268"
           style="fill:#ffffff;fill-opacity:1;fill-rule:nonzero;stroke:none"
           d="m 12194.9,16229.2 c 0,-39.1 -31.7,-70.8 -70.8,-70.8 -39.1,0 -70.8,31.7 -70.8,70.8 0,39.1 31.7,70.8 70.8,70.8 39.1,0 70.8,-31.7 70.8,-70.8"
           inkscape:connector-curvature="0" /></g><g
         transform="matrix(0.33892399,0,0,-0.33892399,0,6633.3333)"
         id="g270"><path
           id="path272"
           style="fill:#ffffff;fill-opacity:1;fill-rule:nonzero;stroke:none"
           d="m 12442.8,16229.2 c 0,-39.1 -31.7,-70.8 -70.8,-70.8 -39.1,0 -70.9,31.7 -70.9,70.8 0,39.1 31.8,70.8 70.9,70.8 39.1,0 70.8,-31.7 70.8,-70.8"
           inkscape:connector-curvature="0" /></g><g
         transform="matrix(0.34370932,0,0,-0.34370932,0,6633.3333)"
         id="g274"><path
           id="path276"
           style="fill:#ffffff;fill-opacity:1;fill-rule:nonzero;stroke:none"
           d="m 12147.3,16230.2 c 0,-38.6 -31.2,-69.9 -69.8,-69.9 -38.6,0 -69.8,31.3 -69.8,69.9 0,38.5 31.2,69.8 69.8,69.8 38.6,0 69.8,-31.3 69.8,-69.8"
           inkscape:connector-curvature="0" /></g><g
         transform="matrix(0.34370932,0,0,-0.34370932,0,6633.3333)"
         id="g278"><path
           id="path280"
           style="fill:#ffffff;fill-opacity:1;fill-rule:nonzero;stroke:none"
           d="m 12391.8,16230.2 c 0,-38.6 -31.3,-69.9 -69.9,-69.9 -38.5,0 -69.8,31.3 -69.8,69.9 0,38.5 31.3,69.8 69.8,69.8 38.6,0 69.9,-31.3 69.9,-69.8"
           inkscape:connector-curvature="0" /></g><g
         transform="matrix(0.34849466,0,0,-0.34849466,0,6633.3333)"
         id="g282"><path
           id="path284"
           style="fill:#ffffff;fill-opacity:1;fill-rule:nonzero;stroke:none"
           d="m 12359.3,16231.1 c 0,-38 -30.8,-68.8 -68.8,-68.8 -38.1,0 -68.9,30.8 -68.9,68.8 0,38.1 30.8,68.9 68.9,68.9 38,0 68.8,-30.8 68.8,-68.9"
           inkscape:connector-curvature="0" /></g><g
         transform="matrix(0.33892399,0,0,-0.33892399,0,6633.3333)"
         id="g286"><path
           id="path288"
           style="fill:#ffffff;fill-opacity:1;fill-rule:nonzero;stroke:none"
           d="m 12708.4,16229.2 c 0,-39.1 -31.7,-70.8 -70.9,-70.8 -39.1,0 -70.8,31.7 -70.8,70.8 0,39.1 31.7,70.8 70.8,70.8 39.2,0 70.9,-31.7 70.9,-70.8"
           inkscape:connector-curvature="0" /></g><g
         transform="matrix(0.34370932,0,0,-0.34370932,0,6633.3333)"
         id="g290"><path
           id="path292"
           style="fill:#ffffff;fill-opacity:1;fill-rule:nonzero;stroke:none"
           d="m 12653.6,16230.2 c 0,-38.6 -31.2,-69.9 -69.8,-69.9 -38.6,0 -69.8,31.3 -69.8,69.9 0,38.5 31.2,69.8 69.8,69.8 38.6,0 69.8,-31.3 69.8,-69.8"
           inkscape:connector-curvature="0" /></g><g
         transform="matrix(0.34849466,0,0,-0.34849466,0,6633.3333)"
         id="g294"><path
           id="path296"
           style="fill:#ffffff;fill-opacity:1;fill-rule:nonzero;stroke:none"
           d="m 12617.6,16231.1 c 0,-38 -30.8,-68.8 -68.9,-68.8 -38,0 -68.8,30.8 -68.8,68.8 0,38.1 30.8,68.9 68.8,68.9 38.1,0 68.9,-30.8 68.9,-68.9"
           inkscape:connector-curvature="0" /></g><g
         transform="matrix(0.33892399,0,0,-0.33892399,0,6633.3333)"
         id="g298"><path
           id="path300"
           style="fill:#ffffff;fill-opacity:1;fill-rule:nonzero;stroke:none"
           d="m 12973.9,16229.2 c 0,-39.1 -31.7,-70.8 -70.8,-70.8 -39.1,0 -70.8,31.7 -70.8,70.8 0,39.1 31.7,70.8 70.8,70.8 39.1,0 70.8,-31.7 70.8,-70.8"
           inkscape:connector-curvature="0" /></g><g
         transform="matrix(0.34370932,0,0,-0.34370932,0,6633.3333)"
         id="g302"><path
           id="path304"
           style="fill:#ffffff;fill-opacity:1;fill-rule:nonzero;stroke:none"
           d="m 12915.5,16230.2 c 0,-38.6 -31.3,-69.9 -69.8,-69.9 -38.6,0 -69.9,31.3 -69.9,69.9 0,38.5 31.3,69.8 69.9,69.8 38.5,0 69.8,-31.3 69.8,-69.8"
           inkscape:connector-curvature="0" /></g><g
         transform="matrix(0.34849466,0,0,-0.34849466,0,6633.3333)"
         id="g306"><path
           id="path308"
           style="fill:#ffffff;fill-opacity:1;fill-rule:nonzero;stroke:none"
           d="m 12875.9,16231.1 c 0,-38 -30.9,-68.8 -68.9,-68.8 -38,0 -68.9,30.8 -68.9,68.8 0,38.1 30.9,68.9 68.9,68.9 38,0 68.9,-30.8 68.9,-68.9"
           inkscape:connector-curvature="0" /></g><g
         transform="matrix(0.33892399,0,0,-0.33892399,0,6633.3333)"
         id="g310"><path
           id="path312"
           style="fill:#ffffff;fill-opacity:1;fill-rule:nonzero;stroke:none"
           d="m 13239.5,16229.2 c 0,-39.1 -31.7,-70.8 -70.8,-70.8 -39.1,0 -70.8,31.7 -70.8,70.8 0,39.1 31.7,70.8 70.8,70.8 39.1,0 70.8,-31.7 70.8,-70.8"
           inkscape:connector-curvature="0" /></g><g
         transform="matrix(0.34370932,0,0,-0.34370932,0,6633.3333)"
         id="g314"><path
           id="path316"
           style="fill:#ffffff;fill-opacity:1;fill-rule:nonzero;stroke:none"
           d="m 13177.4,16230.2 c 0,-38.6 -31.3,-69.9 -69.8,-69.9 -38.6,0 -69.9,31.3 -69.9,69.9 0,38.5 31.3,69.8 69.9,69.8 38.5,0 69.8,-31.3 69.8,-69.8"
           inkscape:connector-curvature="0" /></g><g
         transform="matrix(0.34849466,0,0,-0.34849466,0,6633.3333)"
         id="g318"><path
           id="path320"
           style="fill:#ffffff;fill-opacity:1;fill-rule:nonzero;stroke:none"
           d="m 13134.2,16231.1 c 0,-38 -30.9,-68.8 -68.9,-68.8 -38,0 -68.9,30.8 -68.9,68.8 0,38.1 30.9,68.9 68.9,68.9 38,0 68.9,-30.8 68.9,-68.9"
           inkscape:connector-curvature="0" /></g><g
         transform="matrix(0.33892399,0,0,-0.33892399,0,6633.3333)"
         id="g322"><path
           id="path324"
           style="fill:#ffffff;fill-opacity:1;fill-rule:nonzero;stroke:none"
           d="m 13505.1,16229.2 c 0,-39.1 -31.7,-70.8 -70.8,-70.8 -39.1,0 -70.8,31.7 -70.8,70.8 0,39.1 31.7,70.8 70.8,70.8 39.1,0 70.8,-31.7 70.8,-70.8"
           inkscape:connector-curvature="0" /></g><g
         transform="matrix(0.34370932,0,0,-0.34370932,0,6633.3333)"
         id="g326"><path
           id="path328"
           style="fill:#ffffff;fill-opacity:1;fill-rule:nonzero;stroke:none"
           d="m 13439.2,16230.2 c 0,-38.6 -31.2,-69.9 -69.8,-69.9 -38.6,0 -69.8,31.3 -69.8,69.9 0,38.5 31.2,69.8 69.8,69.8 38.6,0 69.8,-31.3 69.8,-69.8"
           inkscape:connector-curvature="0" /></g><g
         transform="matrix(0.34702266,0,0,-0.34702266,0,6633.3333)"
         id="g330"><path
           id="path332"
           style="fill:#ffffff;fill-opacity:1;fill-rule:nonzero;stroke:none"
           d="m 14596.3,15892.7 c 0,-23.4 -18.9,-42.3 -42.3,-42.3 h -399.6 c -23.4,0 -42.3,18.9 -42.3,42.3 v 365 c 0,23.4 18.9,42.3 42.3,42.3 h 399.6 c 23.4,0 42.3,-18.9 42.3,-42.3 v -365"
           inkscape:connector-curvature="0" /></g><g
         transform="matrix(0.32999733,0,0,-0.32999733,0,6633.3333)"
         id="g334"><path
           id="path336"
           style="fill:#3068a9;fill-opacity:1;fill-rule:nonzero;stroke:none"
           d="m 15690.5,15448.6 c 0,-55.8 -45.2,-101 -101,-101 h -3319 c -55.8,0 -101,45.2 -101,101 v 750.4 c 0,55.8 45.2,101 101,101 h 3319 c 55.8,0 101,-45.2 101,-101 v -750.4"
           inkscape:connector-curvature="0" /></g><g
         transform="matrix(0.32657066,0,0,-0.32657066,0,6633.3333)"
         id="g338"><path
           id="path340"
           style="fill:#ffffff;fill-opacity:1;fill-rule:nonzero;stroke:none"
           d="m 12656.2,16226.5 c 0,-40.6 -32.9,-73.5 -73.5,-73.5 -40.6,0 -73.5,32.9 -73.5,73.5 0,40.6 32.9,73.5 73.5,73.5 40.6,0 73.5,-32.9 73.5,-73.5"
           inkscape:connector-curvature="0" /></g><g
         transform="matrix(0.32657066,0,0,-0.32657066,0,6633.3333)"
         id="g342"><path
           id="path344"
           style="fill:#ffffff;fill-opacity:1;fill-rule:nonzero;stroke:none"
           d="m 12913.5,16226.5 c 0,-40.6 -32.9,-73.5 -73.5,-73.5 -40.6,0 -73.5,32.9 -73.5,73.5 0,40.6 32.9,73.5 73.5,73.5 40.6,0 73.5,-32.9 73.5,-73.5"
           inkscape:connector-curvature="0" /></g><g
         transform="matrix(0.31699866,0,0,-0.31699866,0,6633.3333)"
         id="g346"><path
           id="path348"
           style="fill:#ffffff;fill-opacity:1;fill-rule:nonzero;stroke:none"
           d="m 13038.4,16224.3 c 0,-41.8 -33.9,-75.7 -75.7,-75.7 -41.9,0 -75.8,33.9 -75.8,75.7 0,41.8 33.9,75.7 75.8,75.7 41.8,0 75.7,-33.9 75.7,-75.7"
           inkscape:connector-curvature="0" /></g><g
         transform="matrix(0.31699866,0,0,-0.31699866,0,6633.3333)"
         id="g350"><path
           id="path352"
           style="fill:#ffffff;fill-opacity:1;fill-rule:nonzero;stroke:none"
           d="m 13303.4,16224.3 c 0,-41.8 -33.9,-75.7 -75.7,-75.7 -41.9,0 -75.8,33.9 -75.8,75.7 0,41.8 33.9,75.7 75.8,75.7 41.8,0 75.7,-33.9 75.7,-75.7"
           inkscape:connector-curvature="0" /></g><g
         transform="matrix(0.32178533,0,0,-0.32178533,0,6633.3333)"
         id="g354"><path
           id="path356"
           style="fill:#ffffff;fill-opacity:1;fill-rule:nonzero;stroke:none"
           d="m 12975,16225.4 c 0,-41.2 -33.4,-74.6 -74.6,-74.6 -41.2,0 -74.6,33.4 -74.6,74.6 0,41.2 33.4,74.6 74.6,74.6 41.2,0 74.6,-33.4 74.6,-74.6"
           inkscape:connector-curvature="0" /></g><g
         transform="matrix(0.32178533,0,0,-0.32178533,0,6633.3333)"
         id="g358"><path
           id="path360"
           style="fill:#ffffff;fill-opacity:1;fill-rule:nonzero;stroke:none"
           d="m 13236.1,16225.4 c 0,-41.2 -33.4,-74.6 -74.6,-74.6 -41.2,0 -74.6,33.4 -74.6,74.6 0,41.2 33.4,74.6 74.6,74.6 41.2,0 74.6,-33.4 74.6,-74.6"
           inkscape:connector-curvature="0" /></g><g
         transform="matrix(0.32657066,0,0,-0.32657066,0,6633.3333)"
         id="g362"><path
           id="path364"
           style="fill:#ffffff;fill-opacity:1;fill-rule:nonzero;stroke:none"
           d="m 13189.1,16226.5 c 0,-40.6 -32.9,-73.5 -73.5,-73.5 -40.6,0 -73.5,32.9 -73.5,73.5 0,40.6 32.9,73.5 73.5,73.5 40.6,0 73.5,-32.9 73.5,-73.5"
           inkscape:connector-curvature="0" /></g><g
         transform="matrix(0.31699866,0,0,-0.31699866,0,6633.3333)"
         id="g366"><path
           id="path368"
           style="fill:#ffffff;fill-opacity:1;fill-rule:nonzero;stroke:none"
           d="m 13587.3,16224.3 c 0,-41.8 -33.9,-75.7 -75.7,-75.7 -41.8,0 -75.7,33.9 -75.7,75.7 0,41.8 33.9,75.7 75.7,75.7 41.8,0 75.7,-33.9 75.7,-75.7"
           inkscape:connector-curvature="0" /></g><g
         transform="matrix(0.32178533,0,0,-0.32178533,0,6633.3333)"
         id="g370"><path
           id="path372"
           style="fill:#ffffff;fill-opacity:1;fill-rule:nonzero;stroke:none"
           d="m 13515.8,16225.4 c 0,-41.2 -33.4,-74.6 -74.6,-74.6 -41.2,0 -74.6,33.4 -74.6,74.6 0,41.2 33.4,74.6 74.6,74.6 41.2,0 74.6,-33.4 74.6,-74.6"
           inkscape:connector-curvature="0" /></g><g
         transform="matrix(0.32657066,0,0,-0.32657066,0,6633.3333)"
         id="g374"><path
           id="path376"
           style="fill:#ffffff;fill-opacity:1;fill-rule:nonzero;stroke:none"
           d="m 13464.7,16226.5 c 0,-40.6 -32.9,-73.5 -73.5,-73.5 -40.6,0 -73.5,32.9 -73.5,73.5 0,40.6 32.9,73.5 73.5,73.5 40.6,0 73.5,-32.9 73.5,-73.5"
           inkscape:connector-curvature="0" /></g><g
         transform="matrix(0.31699866,0,0,-0.31699866,0,6633.3333)"
         id="g378"><path
           id="path380"
           style="fill:#ffffff;fill-opacity:1;fill-rule:nonzero;stroke:none"
           d="m 13871.3,16224.3 c 0,-41.8 -33.9,-75.7 -75.7,-75.7 -41.9,0 -75.8,33.9 -75.8,75.7 0,41.8 33.9,75.7 75.8,75.7 41.8,0 75.7,-33.9 75.7,-75.7"
           inkscape:connector-curvature="0" /></g><g
         transform="matrix(0.32178533,0,0,-0.32178533,0,6633.3333)"
         id="g382"><path
           id="path384"
           style="fill:#ffffff;fill-opacity:1;fill-rule:nonzero;stroke:none"
           d="m 13795.5,16225.4 c 0,-41.2 -33.4,-74.6 -74.6,-74.6 -41.2,0 -74.6,33.4 -74.6,74.6 0,41.2 33.4,74.6 74.6,74.6 41.2,0 74.6,-33.4 74.6,-74.6"
           inkscape:connector-curvature="0" /></g><g
         transform="matrix(0.32657066,0,0,-0.32657066,0,6633.3333)"
         id="g386"><path
           id="path388"
           style="fill:#ffffff;fill-opacity:1;fill-rule:nonzero;stroke:none"
           d="m 13740.3,16226.5 c 0,-40.6 -32.9,-73.5 -73.5,-73.5 -40.6,0 -73.5,32.9 -73.5,73.5 0,40.6 32.9,73.5 73.5,73.5 40.6,0 73.5,-32.9 73.5,-73.5"
           inkscape:connector-curvature="0" /></g><g
         transform="matrix(0.31699866,0,0,-0.31699866,0,6633.3333)"
         id="g390"><path
           id="path392"
           style="fill:#ffffff;fill-opacity:1;fill-rule:nonzero;stroke:none"
           d="m 14155.2,16224.3 c 0,-41.8 -33.9,-75.7 -75.7,-75.7 -41.8,0 -75.7,33.9 -75.7,75.7 0,41.8 33.9,75.7 75.7,75.7 41.8,0 75.7,-33.9 75.7,-75.7"
           inkscape:connector-curvature="0" /></g><g
         transform="matrix(0.32178533,0,0,-0.32178533,0,6633.3333)"
         id="g394"><path
           id="path396"
           style="fill:#ffffff;fill-opacity:1;fill-rule:nonzero;stroke:none"
           d="m 14075.2,16225.4 c 0,-41.2 -33.4,-74.6 -74.6,-74.6 -41.2,0 -74.6,33.4 -74.6,74.6 0,41.2 33.4,74.6 74.6,74.6 41.2,0 74.6,-33.4 74.6,-74.6"
           inkscape:connector-curvature="0" /></g><g
         transform="matrix(0.32657066,0,0,-0.32657066,0,6633.3333)"
         id="g398"><path
           id="path400"
           style="fill:#ffffff;fill-opacity:1;fill-rule:nonzero;stroke:none"
           d="m 14015.9,16226.5 c 0,-40.6 -32.9,-73.5 -73.5,-73.5 -40.5,0 -73.5,32.9 -73.5,73.5 0,40.6 33,73.5 73.5,73.5 40.6,0 73.5,-32.9 73.5,-73.5"
           inkscape:connector-curvature="0" /></g><g
         transform="matrix(0.31699866,0,0,-0.31699866,0,6633.3333)"
         id="g402"><path
           id="path404"
           style="fill:#ffffff;fill-opacity:1;fill-rule:nonzero;stroke:none"
           d="m 14439.1,16224.3 c 0,-41.8 -33.9,-75.7 -75.7,-75.7 -41.8,0 -75.7,33.9 -75.7,75.7 0,41.8 33.9,75.7 75.7,75.7 41.8,0 75.7,-33.9 75.7,-75.7"
           inkscape:connector-curvature="0" /></g><g
         transform="matrix(0.32178533,0,0,-0.32178533,0,6633.3333)"
         id="g406"><path
           id="path408"
           style="fill:#ffffff;fill-opacity:1;fill-rule:nonzero;stroke:none"
           d="m 14354.9,16225.4 c 0,-41.2 -33.4,-74.6 -74.6,-74.6 -41.2,0 -74.6,33.4 -74.6,74.6 0,41.2 33.4,74.6 74.6,74.6 41.2,0 74.6,-33.4 74.6,-74.6"
           inkscape:connector-curvature="0" /></g><g
         transform="matrix(0.32509733,0,0,-0.32509733,0,6633.3333)"
         id="g410"><path
           id="path412"
           style="fill:#ffffff;fill-opacity:1;fill-rule:nonzero;stroke:none"
           d="m 15580.7,15865.2 c 0,-24.9 -20.2,-45.1 -45.1,-45.1 H 15109 c -25,0 -45.1,20.2 -45.1,45.1 v 389.7 c 0,24.9 20.1,45.1 45.1,45.1 h 426.6 c 24.9,0 45.1,-20.2 45.1,-45.1 v -389.7"
           inkscape:connector-curvature="0" /></g><g
         transform="matrix(0.35870532,0,0,-0.35870532,0,6633.3333)"
         id="g414"><path
           id="path416"
           style="fill:#bf1b2c;fill-opacity:1;fill-rule:nonzero;stroke:none"
           d="m 16300,15526.2 c 0,-148.3 -120.2,-268.6 -268.6,-268.6 -148.4,0 -268.6,120.3 -268.6,268.6 0,148.4 120.2,268.7 268.6,268.7 148.4,0 268.6,-120.3 268.6,-268.7"
           inkscape:connector-curvature="0" /></g><g
         transform="matrix(0.36813599,0,0,-0.36813599,0,6633.3333)"
         id="g418"><path
           id="path420"
           style="fill:#bf1b2c;fill-opacity:1;fill-rule:nonzero;stroke:none"
           d="m 15043.8,15682.5 -102.5,102.5 c 181.5,181.4 422.7,281.4 679.3,281.4 256.7,0 497.9,-100 679.4,-281.4 l -102.4,-102.5 c -154.1,154.1 -359,239 -577,239 -217.8,0 -422.7,-84.9 -576.8,-239"
           inkscape:connector-curvature="0" /></g><g
         transform="matrix(0.36466666,0,0,-0.36466666,0,6633.3333)"
         id="g422"><path
           id="path424"
           style="fill:#bf1b2c;fill-opacity:1;fill-rule:nonzero;stroke:none"
           d="m 15342,15676.6 -103.4,103.4 c 141.8,141.8 330.2,219.9 530.7,219.9 200.5,0 388.9,-78.1 530.7,-219.8 l -103.4,-103.5 c -114.1,114.2 -265.9,177 -427.3,177 -161.4,0 -313.1,-62.8 -427.3,-177"
           inkscape:connector-curvature="0" /></g><g
         transform="matrix(0.36119599,0,0,-0.36119599,0,6633.3333)"
         id="g426"><path
           id="path428"
           style="fill:#bf1b2c;fill-opacity:1;fill-rule:nonzero;stroke:none"
           d="m 16195.6,15667 c -73.4,73.4 -171,113.8 -274.8,113.8 -103.8,0 -201.4,-40.4 -274.7,-113.8 l -104.4,104.4 c 101.3,101.3 235.9,157 379.1,157 143.3,0 277.9,-55.7 379.2,-157 l -104.4,-104.4"
           inkscape:connector-curvature="0" /></g><g
         transform="matrix(0.38736132,0,0,-0.38736132,0,6633.3333)"
         id="g430"><path
           id="path432"
           style="fill:#3871c1;fill-opacity:1;fill-rule:nonzero;stroke:none"
           d="m 8671.62,15288.3 c 0,0 577.13,-1.6 600.13,-1.6 186.52,0 337.74,151.2 337.74,337.8 0,186.5 -151.22,337.7 -337.74,337.7 -17.45,0 -34.63,-1.3 -51.36,-3.8 0.04,1.3 0.07,2.5 0.07,3.8 0,186.6 -151.25,337.8 -337.77,337.8 -62.13,0 -120.3,-16.8 -170.32,-46 -55.07,-22.1 -95.48,-54.2 -123.15,-81.2 -40.41,24.7 -87.91,38.9 -138.75,38.9 -111.56,0 -207.11,-68.5 -246.84,-165.8 -1.34,-3.3 -2.61,-6.7 -3.82,-10 l 471.81,-747.6"
           inkscape:connector-curvature="0" /></g><g
         transform="matrix(0.38308932,0,0,-0.38308932,0,6633.3333)"
         id="g434"><path
           id="path436"
           style="fill:#51ade5;fill-opacity:1;fill-rule:nonzero;stroke:none"
           d="m 9003.71,15594.1 c 0,69.1 -41.73,200.8 -196.23,286.2 4.53,19.6 6.93,40 6.93,61 0,148.8 -120.63,269.4 -269.42,269.4 -51.41,0 -99.44,-14.4 -140.3,-39.3 -27.98,27.3 -68.85,59.8 -124.57,82.1 -50.53,29.5 -109.39,46.5 -172.18,46.5 -188.64,0 -341.54,-152.9 -341.54,-341.5 0,-1.3 0.04,-2.6 0.04,-4 -16.92,2.6 -34.25,4 -51.9,4 -188.64,0 -341.53,-152.9 -341.53,-341.6 0,-188.6 152.89,-341.5 341.53,-341.5 23.25,0 1003.7,1.7 1003.7,1.7 0,0 295.57,28.1 285.47,317"
           inkscape:connector-curvature="0" /></g><g
         transform="matrix(0.35483466,0,0,-0.35483466,0,6633.3333)"
         id="g438"><path
           id="path440"
           style="fill:#ffffff;fill-opacity:1;fill-rule:nonzero;stroke:none"
           d="m 8577.25,15805.2 198.78,258.5 h -125.7 v 236.3 h -146.17 v -236.3 h -125.73 l 198.82,-258.5"
           inkscape:connector-curvature="0" /></g><g
         transform="matrix(0.35483466,0,0,-0.35483466,0,6633.3333)"
         id="g442"><path
           id="path444"
           style="fill:#ffffff;fill-opacity:1;fill-rule:nonzero;stroke:none"
           d="m 10267.2,15805.2 198.8,258.5 h -125.7 v 236.3 h -146.1 v -236.3 h -125.8 l 198.8,-258.5"
           inkscape:connector-curvature="0" /></g><g
         transform="matrix(0.35483466,0,0,-0.35483466,0,6633.3333)"
         id="g446"><path
           id="path448"
           style="fill:#ffffff;fill-opacity:1;fill-rule:nonzero;stroke:none"
           d="m 9039.29,16300 198.81,-258.5 h -125.73 v -544.9 h -146.13 v 544.9 h -125.73 l 198.78,258.5"
           inkscape:connector-curvature="0" /></g><g
         transform="matrix(0.35483466,0,0,-0.35483466,0,6633.3333)"
         id="g450"><path
           id="path452"
           style="fill:#ffffff;fill-opacity:1;fill-rule:nonzero;stroke:none"
           d="m 9807.61,16300 198.79,-258.5 h -125.71 v -544.9 h -146.13 v 544.9 h -125.73 l 198.78,258.5"
           inkscape:connector-curvature="0" /></g><g
         transform="matrix(0.35483466,0,0,-0.35483466,0,6633.3333)"
         id="g454"><path
           id="path456"
           style="fill:#ffffff;fill-opacity:1;fill-rule:nonzero;stroke:none"
           d="m 9434.44,15020.7 198.81,258.5 H 9507.52 V 16300 h -146.13 v -1020.8 h -125.73 l 198.78,-258.5"
           inkscape:connector-curvature="0" /></g><g
         transform="matrix(0.39453999,0,0,-0.39453999,0,6633.3333)"
         id="g458"><path
           id="path460"
           style="fill:#51ade5;fill-opacity:1;fill-rule:nonzero;stroke:none"
           d="m 16269.6,15614.6 c 0,67.1 -40.5,195 -190.5,277.9 4.4,19 6.7,38.8 6.7,59.2 0,144.5 -117.1,261.6 -261.6,261.6 -49.9,0 -96.5,-14 -136.2,-38.2 -27.2,26.5 -66.9,58.1 -121,79.7 -49,28.7 -106.2,45.2 -167.1,45.2 -183.2,0 -331.7,-148.5 -331.7,-331.6 0,-1.3 0.1,-2.6 0.1,-3.8 -16.5,2.5 -33.3,3.8 -50.4,3.8 -183.2,0 -331.7,-148.5 -331.7,-331.6 0,-183.2 148.5,-331.6 331.7,-331.6 22.5,0 974.5,1.6 974.5,1.6 0,0 287,27.2 277.2,307.8"
           inkscape:connector-curvature="0" /></g><g
         transform="matrix(0.38803999,0,0,-0.38803999,0,6633.3333)"
         id="g462"><path
           id="path464"
           style="fill:#ffffff;fill-opacity:1;fill-rule:nonzero;stroke:none"
           d="m 15850.6,16275.9 c -0.3,0.3 -0.6,0.6 -1,0.7 -33.4,14.7 -70.2,23 -108.9,23.3 h -0.4 -0.2 c -6.1,0.1 -12.2,-0.1 -18.2,-0.5 -4.2,-0.3 -8.4,-0.7 -12.6,-1.1 -0.6,-0.1 -1.3,-0.1 -2,-0.2 v 0 c -48.8,-5.4 -94.1,-23.2 -132,-50.5 l -27.3,40.2 c -1.6,2.4 -4.5,3.5 -7.3,2.9 -2.8,-0.6 -4.9,-2.8 -5.4,-5.6 l -17,-93.5 -11.9,-66 c -0.4,-2.1 0.2,-4.2 1.6,-5.8 1.3,-1.5 3.3,-2.4 5.2,-2.4 h 0.5 l 74.1,3.9 83.5,4.5 c 2.8,0.1 5.2,1.9 6.2,4.6 1,2.6 0.3,5.6 -1.8,7.5 l -34.4,32.4 c 21.6,14.1 46.3,23.5 72.9,27 l 0.1,-0.8 c 8.1,1.1 16.4,1.8 24.8,1.7 99,-1 178.4,-82 177.4,-181 -1,-98.9 -82,-178.3 -180.9,-177.4 -99,1 -178.4,82.1 -177.4,181 0,8.6 1,17.1 2.2,25.3 l -95.4,36.1 c -4.2,-18.9 -6.7,-38.5 -6.9,-58.7 -1.5,-154.3 122.2,-280.5 276.5,-282.1 154.2,-1.5 280.5,122.3 282,276.5 1.1,114.9 -67.3,214.2 -166,258"
           inkscape:connector-curvature="0" /></g><g
         transform="matrix(0.33863066,0,0,-0.33863066,0,6633.3333)"
         id="g466"><path
           id="path468"
           style="fill:#231f20;fill-opacity:1;fill-rule:nonzero;stroke:none"
           d="m 16036.1,15079.4 37.2,-46.9 195.1,155.4 -195.1,155.3 -37.2,-46.8 98.8,-78.6 h -250.4 v -59.8 h 250.3 z m 34.1,-74.5 -61.8,77.6 70.1,55.8 h -213.7 v 99.2 h 213.7 l -70.1,55.8 61.8,77.5 229.8,-182.9 -229.8,-183"
           inkscape:connector-curvature="0" /></g><g
         transform="matrix(0.34690532,0,0,-0.34690532,0,6633.3333)"
         id="g470"><path
           id="path472"
           style="fill:#231f20;fill-opacity:1;fill-rule:nonzero;stroke:none"
           d="m 16042.4,14944.5 36.3,-45.7 190.5,151.7 -190.5,151.6 -36.3,-45.7 96.4,-76.8 h -244.4 v -58.3 h 244.4 z m 33.3,-72.7 -60.4,75.8 68.5,54.4 h -208.6 v 96.9 h 208.6 l -68.5,54.4 60.4,75.8 224.3,-178.6 -224.3,-178.7"
           inkscape:connector-curvature="0" /></g><g
         transform="matrix(0.31785466,0,0,-0.31785466,0,6633.3333)"
         id="g474"><path
           id="path476"
           style="fill:#231f20;fill-opacity:1;fill-rule:nonzero;stroke:none"
           d="m 11082.3,16105.1 207.8,-165.5 39.8,49.9 -105.3,83.7 h 266.7 v 63.7 h -266.7 l 105.3,83.8 -39.8,49.8 z m 211.2,-195 -244.9,195 244.9,194.9 65.8,-82.6 -74.7,-59.5 h 227.7 v -105.7 h -227.7 l 74.7,-59.4 -65.8,-82.7"
           inkscape:connector-curvature="0" /></g><g
         transform="matrix(0.39116266,0,0,-0.39116266,0,6633.3333)"
         id="g478"><path
           id="path480"
           style="fill:#231f20;fill-opacity:1;fill-rule:nonzero;stroke:none"
           d="m 10280,16141.6 168.8,-134.5 32.3,40.5 -85.5,68.1 h 216.8 v 51.8 h -216.8 l 85.5,68.1 -32.3,40.5 z m 171.6,-158.4 -199,158.4 199,158.4 53.5,-67.2 -60.7,-48.3 h 185 v -85.8 h -185 l 60.7,-48.3 -53.5,-67.2"
           inkscape:connector-curvature="0" /></g><g
         transform="matrix(0.38465066,0,0,-0.38465066,0,6633.3333)"
         id="g482"><path
           id="path484"
           style="fill:#231f20;fill-opacity:1;fill-rule:nonzero;stroke:none"
           d="m 16105.4,13534.3 -8.5,1.5 c -7.8,-44.1 -30.8,-81.6 -62.6,-108 -31.9,-26.6 -72.6,-42 -115.8,-42 -10.4,0 -21,0.9 -31.7,2.7 -44,7.8 -81.5,30.8 -108,62.7 -26.4,31.9 -41.9,72.6 -41.9,115.8 0,10.5 0.9,21.1 2.8,31.8 7.7,44 30.7,81.5 62.6,108 31.9,26.5 72.6,42 115.7,42 10.5,0 21.1,-0.9 31.8,-2.8 44,-7.8 81.4,-30.7 107.9,-62.7 26.5,-31.9 41.9,-72.6 41.9,-115.8 0,-10.5 -0.9,-21.1 -2.7,-31.7 l 8.5,-1.5 8.5,-1.5 c 2.1,11.6 3.1,23.2 3.1,34.7 0,47.3 -17,92 -46,126.9 -28.9,34.9 -70,60.2 -118.2,68.7 -11.7,2 -23.3,3 -34.8,3 -47.3,0 -91.9,-16.9 -126.8,-46 -34.9,-29 -60.1,-70.1 -68.6,-118.3 -2.1,-11.7 -3,-23.3 -3,-34.8 0,-47.3 16.9,-92 45.9,-126.9 29,-34.9 70.1,-60.1 118.3,-68.6 11.6,-2.1 23.3,-3.1 34.7,-3.1 47.3,0 92,17 126.8,46 34.9,29 60.2,70.2 68.6,118.4 z m 168.8,-79 8.6,-1.5 17.2,97.9 -97.2,17.2 -1.6,-8.5 8.7,-0.2 c 0.1,2.4 0.1,4.9 0.1,7.3 0,34.4 -6.1,67.8 -17.4,98.9 l -8.1,-2.9 4.3,-7.5 84.2,48.6 -54,93.6 -83.3,-48 4.3,-7.6 6.8,5.4 c -17.3,22 -37.6,42 -61,58.5 l -4.9,-7.1 7.8,-3.7 39.9,85.5 -98,45.7 -39.3,-84.4 7.9,-3.7 2.4,8.3 c -10.5,3.2 -21.3,6 -32.6,8 v 0 c -17.1,3 -34.1,4.2 -50.7,4.2 -0.6,0 -1.2,0 -1.9,0 l 0.1,-8.7 8.5,1.5 -16,90.8 -106.4,-18.8 15.9,-90 8.5,1.5 -2.8,8.2 c -27.7,-9.4 -53.6,-22.9 -77.1,-40 l 5.1,-7 6.1,6.1 -64.4,64.6 -76.5,-76.5 64.9,-64.9 6.1,6.2 -7,5 c -16.6,-23.1 -30.2,-48.9 -39.6,-76.9 l 8.2,-2.8 1.5,8.6 -90.7,16 -18.8,-106.5 91.7,-16.2 1.5,8.6 h -8.7 c 0,-0.4 0,-0.9 0,-1.3 0,-37.6 7.4,-73.9 20.8,-107.4 l 8,3.2 -4.3,7.5 -82.1,-47.4 54,-93.6 83.7,48.3 -4.3,7.5 -6.6,-5.6 c 17.8,-21.1 38.3,-40.1 61.9,-55.8 l 4.8,7.3 -7.9,3.6 -41.1,-88.2 97.9,-45.8 41.6,89.4 -7.9,3.6 -2.2,-8.4 c 8.1,-2.1 16.4,-4 24.8,-5.5 16.9,-3 33.7,-4.4 50.2,-4.4 2.2,0 4.4,0.1 6.6,0.1 l -0.2,8.7 -8.5,-1.5 17.2,-98 106.5,18.8 -17.4,98.7 -8.6,-1.5 2.9,-8.1 c 25.7,9.2 50,21.9 72.1,37.7 l -5.1,7.1 -6.1,-6.2 71,-71 76.4,76.4 -70.9,71 -6.2,-6.1 7.1,-5.1 c 15.7,21.8 28.8,45.9 38.1,72.1 l -8.1,2.9 -1.6,-8.5 98.2,-17.4 1.6,8.6 -8.6,1.5 1.5,8.5 -96.8,17.1 -2.5,-6.9 c -8.8,-24.5 -21.1,-47.1 -35.9,-67.7 l -4.3,-6 63.9,-64 -51.9,-51.9 -63.9,64 -6,-4.3 c -20.7,-14.9 -43.6,-26.8 -67.8,-35.5 l -6.9,-2.5 15.7,-88.9 -72.3,-12.7 -15.5,88.2 -7.5,-0.2 c -2,0 -4.1,0 -6.2,0 -15.6,0 -31.4,1.2 -47.2,4.1 -7.9,1.3 -15.6,3.1 -23.3,5.2 l -7,1.9 -37.4,-80.3 -66.5,31.1 37,79.3 -6.2,4.2 c -22,14.6 -41.4,32.4 -58.3,52.5 l -4.7,5.5 -74.9,-43.3 -36.7,63.7 73.5,42.4 -2.7,7 c -12.6,31.6 -19.5,65.7 -19.5,101 0,0.3 0,0.8 0,1.2 v 7.3 l -81.8,14.4 12.8,72.4 80.9,-14.3 2.4,7.1 c 8.8,26.3 21.6,50.5 37.2,72.3 l 4.3,6 -57.8,57.8 52,51.9 57.4,-57.4 6,4.3 c 22.1,16 46.5,28.7 72.5,37.6 l 7,2.4 -14.2,80.3 72.4,12.7 14.2,-80.9 h 7.4 c 0.5,0 1.1,0 1.7,0 15.8,0 31.7,-1.1 47.7,-3.9 v 0 c 10.4,-1.8 20.5,-4.5 30.7,-7.5 l 7.1,-2.1 35.2,75.4 66.5,-31 -35.6,-76.3 6,-4.2 c 21.8,-15.4 40.8,-34.1 57.3,-55 l 4.6,-5.9 74.8,43.2 36.7,-63.6 -75.4,-43.7 2.4,-6.7 c 10.6,-29.4 16.4,-60.8 16.4,-93.1 0,-2.3 -0.1,-4.6 -0.1,-6.9 l -0.2,-7.5 87.5,-15.4 -14.2,-80.9 8.5,-1.5 1.5,8.5 -1.5,-8.5"
           inkscape:connector-curvature="0" /></g><g
         transform="matrix(0.39048132,0,0,-0.39048132,0,6633.3333)"
         id="g486"><path
           id="path488"
           style="fill:#231f20;fill-opacity:1;fill-rule:nonzero;stroke:none"
           d="m 16108.3,12634.8 -8.4,1.5 c -7.6,-43.5 -30.2,-80.3 -61.7,-106.5 -31.3,-26 -71.5,-41.3 -114,-41.3 -10.3,0 -20.7,0.9 -31.2,2.8 -43.4,7.6 -80.3,30.2 -106.4,61.7 -26.1,31.4 -41.3,71.5 -41.3,114 0,10.4 0.9,20.8 2.8,31.3 7.6,43.4 30.2,80.3 61.6,106.5 31.4,26 71.5,41.3 114.1,41.3 10.3,0 20.7,-0.9 31.2,-2.8 43.4,-7.6 80.2,-30.2 106.3,-61.7 26.1,-31.4 41.3,-71.5 41.3,-114.1 0,-10.3 -0.9,-20.7 -2.7,-31.2 l 8.4,-1.5 8.4,-1.5 c 2.1,11.5 3,22.9 3,34.2 0,46.7 -16.7,90.6 -45.2,125 -28.6,34.5 -69,59.3 -116.5,67.7 -11.5,2 -23,3 -34.2,3 -46.7,0 -90.6,-16.8 -125,-45.3 -34.3,-28.6 -59.2,-69.1 -67.6,-116.6 -2,-11.5 -3,-23 -3,-34.3 0,-46.6 16.7,-90.5 45.3,-124.9 28.6,-34.4 69,-59.3 116.5,-67.7 11.5,-2 22.9,-3 34.2,-3 46.6,0 90.6,16.8 125,45.3 34.3,28.6 59.2,69.1 67.5,116.6 z m 166.3,-77.8 8.4,-1.5 17,96.5 -95.8,16.9 -1.5,-8.4 8.6,-0.2 c 0,2.4 0.1,4.8 0.1,7.3 0,33.8 -6.1,66.7 -17.2,97.4 l -8,-2.9 4.3,-7.4 82.9,47.9 -53.2,92.2 -82.1,-47.4 4.3,-7.3 6.7,5.2 c -17.1,21.7 -37,41.4 -60.1,57.6 l -4.9,-7 7.8,-3.6 39.2,84.2 -96.5,45 -38.7,-83.1 7.7,-3.6 2.5,8.2 c -10.4,3.1 -21,5.9 -32.2,7.8 v 0 c -16.8,3 -33.5,4.1 -49.9,4.1 -0.6,0 -1.2,0 -1.8,0 v -8.5 l 8.4,1.5 -15.7,89.4 -104.9,-18.5 15.7,-88.6 8.4,1.4 -2.8,8.1 c -27.2,-9.3 -52.8,-22.6 -75.9,-39.4 l 5,-6.9 6.1,6 -63.6,63.6 -75.3,-75.3 63.9,-63.9 6.1,6 -7,5 c -16.3,-22.8 -29.7,-48.1 -39,-75.8 l 8.1,-2.7 1.5,8.4 -89.4,15.8 -18.4,-104.9 90.2,-15.9 1.5,8.4 h -8.5 c 0,-0.4 0,-0.8 0,-1.3 0,-37 7.3,-72.7 20.4,-105.7 l 8,3.1 -4.3,7.4 -80.9,-46.7 53.3,-92.2 82.4,47.6 -4.3,7.3 -6.5,-5.5 c 17.6,-20.8 37.8,-39.5 61,-54.9 l 4.7,7.1 -7.7,3.6 -40.6,-86.9 96.5,-45.1 41,88 -7.8,3.6 -2.1,-8.2 c 7.9,-2.2 16,-4 24.3,-5.5 16.7,-2.9 33.3,-4.3 49.6,-4.3 2.1,0 4.2,0.1 6.4,0.1 l -0.2,8.5 -8.4,-1.4 17,-96.5 104.9,18.4 -17.2,97.3 -8.4,-1.5 2.9,-8 c 25.3,9.1 49.2,21.6 70.9,37.2 l -4.9,6.9 -6.1,-6 70,-70 75.3,75.3 -69.9,70 -6.1,-6.1 7,-5 c 15.5,21.5 28.3,45.2 37.6,71 l -8.1,2.9 -1.5,-8.4 96.8,-17.1 1.4,8.4 -8.4,1.5 1.5,8.4 -95.4,16.8 -2.4,-6.7 c -8.7,-24.2 -20.8,-46.5 -35.4,-66.8 l -4.2,-5.9 62.9,-63 -51.1,-51.1 -63,63 -5.9,-4.2 c -20.4,-14.7 -42.9,-26.4 -66.8,-35 l -6.7,-2.5 15.4,-87.5 -71.2,-12.6 -15.3,86.9 -7.3,-0.1 c -2.1,-0.1 -4.1,-0.1 -6.1,-0.1 -15.4,0 -31,1.3 -46.6,4 -7.7,1.4 -15.4,3.1 -22.9,5.2 l -7,1.8 -36.8,-79 -65.5,30.6 36.5,78.2 -6.2,4 c -21.6,14.4 -40.7,32 -57.4,51.8 l -4.5,5.4 -73.9,-42.6 -36.1,62.6 72.4,41.9 -2.7,6.9 c -12.4,31 -19.2,64.7 -19.2,99.4 0,0.4 0,0.8 0,1.2 v 7.2 l -80.5,14.2 12.5,71.3 79.8,-14.1 2.3,7 c 8.7,25.9 21.3,49.8 36.7,71.2 l 4.2,5.9 -56.9,57 51.1,51.1 56.6,-56.6 5.9,4.3 c 21.8,15.8 45.8,28.3 71.4,37.1 l 6.9,2.3 -13.9,79.1 71.2,12.6 14.1,-79.8 7.2,0.1 c 0.6,0 1.1,0 1.7,0 15.6,0 31.3,-1.1 47,-3.9 v 0 c 10.2,-1.8 20.2,-4.4 30.2,-7.4 l 7.1,-2.1 34.6,74.3 65.5,-30.6 -35,-75.1 5.8,-4.1 c 21.5,-15.2 40.3,-33.6 56.5,-54.2 l 4.6,-5.8 73.6,42.5 36.2,-62.6 -74.4,-43 2.5,-6.7 c 10.4,-28.9 16.1,-59.8 16.1,-91.6 0,-2.3 0,-4.6 -0.1,-6.9 l -0.2,-7.3 86.2,-15.2 -14,-79.7 8.4,-1.5 1.5,8.4 -1.5,-8.4"
           inkscape:connector-curvature="0" /></g><g
         transform="matrix(0.33758666,0,0,-0.33758666,0,6633.3333)"
         id="g490"><path
           id="path492"
           style="fill:#231f20;fill-opacity:1;fill-rule:nonzero;stroke:none"
           d="m 11314.5,16042.7 -5.4,0.9 c -9.8,-55.4 -58,-94.4 -112.3,-94.4 -6.6,0 -13.3,0.6 -20,1.7 -55.4,9.8 -94.4,58 -94.4,112.4 0,6.6 0.6,13.3 1.8,20 9.7,55.5 57.9,94.5 112.3,94.5 6.5,0 13.3,-0.6 20,-1.8 55.4,-9.7 94.3,-58 94.3,-112.4 0,-6.6 -0.6,-13.2 -1.7,-20 l 5.4,-0.9 5.3,-0.9 c 1.3,7.3 1.9,14.6 1.9,21.8 0,59.6 -42.6,112.5 -103.3,123.2 -7.4,1.3 -14.7,1.9 -21.9,1.9 -59.6,0 -112.4,-42.8 -123.1,-103.5 -1.3,-7.3 -1.9,-14.7 -1.9,-21.9 0,-59.6 42.7,-112.4 103.4,-123.1 7.3,-1.3 14.6,-1.9 21.9,-1.9 59.6,0 112.3,42.7 123,103.4 z m 106.3,-49.7 5.3,-1 10.9,61.7 -61.2,10.8 -1,-5.4 5.5,-0.1 c 0,1.5 0,3.1 0,4.6 0,21.7 -3.8,42.7 -10.9,62.3 l -5.2,-1.8 2.8,-4.8 53,30.7 -34,58.9 -52.5,-30.3 2.7,-4.7 4.3,3.4 c -10.9,13.8 -23.7,26.4 -38.4,36.8 l -3.1,-4.5 4.9,-2.3 25.1,53.8 -61.7,28.8 -24.7,-53.1 5,-2.3 1.5,5.2 c -6.6,2 -13.4,3.7 -20.5,5 -10.8,1.9 -21.5,2.6 -31.9,2.6 -0.4,0 -0.8,0 -1.2,0 v -5.4 l 5.4,0.9 -10.1,57.2 -67,-11.8 10,-56.7 5.3,1 -1.7,5.1 c -17.4,-5.9 -33.8,-14.4 -48.5,-25.2 l 3.2,-4.4 3.8,3.9 -40.6,40.6 -48.1,-48.1 40.8,-40.9 3.9,3.9 -4.5,3.1 c -10.4,-14.5 -19,-30.7 -24.8,-48.4 l 5.1,-1.7 1,5.3 -57.2,10.1 -11.8,-67 57.7,-10.2 1,5.4 h -5.5 v -0.9 c 0,-23.6 4.7,-46.4 13.1,-67.5 l 5,2 -2.7,4.7 -51.7,-29.8 34.1,-59 52.7,30.4 -2.8,4.7 -4.2,-3.5 c 11.3,-13.3 24.2,-25.3 39.1,-35.1 l 3,4.5 -5,2.3 -25.9,-55.5 61.7,-28.8 26.2,56.2 -5,2.3 -1.4,-5.2 c 5.1,-1.4 10.3,-2.6 15.6,-3.5 10.6,-1.9 21.2,-2.8 31.7,-2.8 1.3,0 2.7,0 4.1,0.1 l -0.1,5.4 -5.4,-0.9 10.8,-61.7 67.1,11.8 -11,62.2 -5.4,-1 1.9,-5.1 c 16.1,5.8 31.4,13.8 45.3,23.8 l -3.1,4.4 -3.9,-3.8 44.7,-44.8 48.1,48.2 -44.7,44.7 -3.8,-3.9 4.4,-3.2 c 9.9,13.7 18.1,28.9 24,45.4 l -5.1,1.8 -0.9,-5.3 61.8,-11 0.9,5.4 -5.3,1 0.9,5.3 -61,10.8 -1.5,-4.3 c -5.6,-15.5 -13.3,-29.8 -22.7,-42.7 l -2.7,-3.8 40.3,-40.2 -32.7,-32.7 -40.3,40.3 -3.7,-2.7 c -13.1,-9.4 -27.5,-16.9 -42.7,-22.4 l -4.3,-1.6 9.8,-55.9 -45.5,-8.1 -9.8,55.6 -4.7,-0.1 c -1.3,0 -2.6,-0.1 -3.8,-0.1 -9.9,0 -19.8,0.8 -29.8,2.6 -4.9,0.9 -9.8,2 -14.7,3.3 l -4.4,1.2 -23.5,-50.5 -41.9,19.6 23.3,49.9 -3.9,2.6 c -13.9,9.2 -26.1,20.4 -36.7,33.1 l -2.9,3.5 -47.2,-27.3 -23.2,40.1 46.4,26.7 -1.8,4.4 c -7.9,19.9 -12.3,41.3 -12.3,63.5 v 0.8 l 0.1,4.6 -51.5,9.1 8,45.6 51,-9 1.5,4.4 c 5.5,16.6 13.5,31.8 23.4,45.6 l 2.7,3.7 -36.4,36.5 32.7,32.7 36.2,-36.2 3.8,2.7 c 13.9,10.1 29.2,18.1 45.6,23.7 l 4.4,1.5 -8.9,50.5 45.5,8.1 9,-51 h 4.6 c 0.4,0 0.8,0 1.2,0 9.9,0 19.9,-0.7 30,-2.5 6.5,-1.1 12.9,-2.8 19.3,-4.7 l 4.5,-1.3 22.1,47.5 41.9,-19.5 -22.4,-48.1 3.8,-2.6 c 13.7,-9.7 25.7,-21.5 36,-34.7 l 2.9,-3.7 47.2,27.2 23.1,-40 -47.5,-27.5 1.5,-4.3 c 6.7,-18.5 10.3,-38.2 10.3,-58.6 0,-1.4 0,-2.9 -0.1,-4.3 l -0.1,-4.7 55.1,-9.7 -8.9,-51 5.4,-0.9 0.9,5.3 -0.9,-5.3"
           inkscape:connector-curvature="0" /></g><g
         transform="matrix(0.30930933,0,0,-0.30930933,0,6633.3333)"
         id="g494"><path
           id="path496"
           style="fill:#3068a9;fill-opacity:1;fill-rule:nonzero;stroke:none"
           d="m 14948,15312.6 h -172.5 v 987.4 h 172.5 v -987.4"
           inkscape:connector-curvature="0" /></g><g
         transform="matrix(0.32975066,0,0,-0.32975066,0,6633.3333)"
         id="g498"><path
           id="path500"
           style="fill:#3068a9;fill-opacity:1;fill-rule:nonzero;stroke:none"
           d="m 16300,14282.4 h -4621.7 v 161.7 H 16300 v -161.7"
           inkscape:connector-curvature="0" /></g><g
         transform="matrix(0.29627466,0,0,-0.29627466,0,6633.3333)"
         id="g502"><path
           id="path504"
           style="fill:#3068a9;fill-opacity:1;fill-rule:nonzero;stroke:none"
           d="m 15820.4,15995.2 c 0,-168.3 -136.5,-304.8 -304.8,-304.8 -168.3,0 -304.8,136.5 -304.8,304.8 0,168.4 136.5,304.8 304.8,304.8 168.3,0 304.8,-136.4 304.8,-304.8"
           inkscape:connector-curvature="0" /></g><g
         transform="matrix(0.38389332,0,0,-0.38389332,0,6633.3333)"
         id="g506"><path
           id="path508"
           style="fill:#231f20;fill-opacity:1;fill-rule:nonzero;stroke:none"
           d="m 13822,16100.6 c -50.2,0 -91.1,40.8 -91.1,91 0,50.2 40.9,91 91.1,91 50.2,0 91.1,-40.8 91.1,-91 0,-50.2 -40.9,-91 -91.1,-91 z m 0,199.4 c -59.8,0 -108.4,-48.6 -108.4,-108.4 0,-59.8 48.6,-108.4 108.4,-108.4 59.8,0 108.5,48.6 108.5,108.4 0,59.8 -48.7,108.4 -108.5,108.4"
           inkscape:connector-curvature="0" /></g><g
         transform="matrix(0.38611466,0,0,-0.38611466,0,6633.3333)"
         id="g510"><path
           id="path512"
           style="fill:#231f20;fill-opacity:1;fill-rule:nonzero;stroke:none"
           d="m 13891.1,15753.5 -4.2,-2.5 v -551.5 l -120.9,-154.2 h -12.6 l -132,144.9 82.7,69.8 -86.9,65.4 77.1,65.5 -79.9,63.4 79.2,61.9 -88.1,65.2 -1.5,51.6 v 114.6 l -4.3,2.5 c -88.1,51.1 -142.8,145.7 -142.8,247 0,157.5 128.1,285.6 285.7,285.6 157.4,0 285.5,-128.1 285.5,-285.6 0,-100.1 -51.2,-191.1 -137,-243.6 z m -148.5,546.5 c -167,0 -302.9,-135.9 -302.9,-302.9 0,-105.8 56.2,-204.7 147,-259.4 v -104.9 l 1.8,-60.3 76.6,-56.7 -78.6,-61.4 80.6,-64 -77.6,-65.8 86.9,-65.4 -79.8,-67.4 149.2,-163.8 h 28.6 l 129.8,165.5 v 547.8 c 88.5,56 141.2,151.3 141.2,255.8 0,167 -135.9,302.9 -302.8,302.9"
           inkscape:connector-curvature="0" /></g></g></g></svg>