<?xml version="1.0" encoding="UTF-8" standalone="no"?>
<svg
   xmlns:dc="http://purl.org/dc/elements/1.1/"
   xmlns:cc="http://creativecommons.org/ns#"
   xmlns:rdf="http://www.w3.org/1999/02/22-rdf-syntax-ns#"
   xmlns:svg="http://www.w3.org/2000/svg"
   xmlns="http://www.w3.org/2000/svg"
   xmlns:sodipodi="http://sodipodi.sourceforge.net/DTD/sodipodi-0.dtd"
   xmlns:inkscape="http://www.inkscape.org/namespaces/inkscape"
   viewBox="0 0 223.93601 152.15199"
   height="152.15199"
   width="223.936"
   xml:space="preserve"
   id="svg2"
   version="1.1"
   sodipodi:docname="logo-mysql.svg"
   inkscape:version="0.92.1 r15371"><sodipodi:namedview
     pagecolor="#ffffff"
     bordercolor="#666666"
     borderopacity="1"
     objecttolerance="10"
     gridtolerance="10"
     guidetolerance="10"
     inkscape:pageopacity="0"
     inkscape:pageshadow="2"
     inkscape:window-width="1858"
     inkscape:window-height="1057"
     id="namedview4499"
     showgrid="false"
     inkscape:zoom="3.9490329"
     inkscape:cx="159.66"
     inkscape:cy="80.272817"
     inkscape:window-x="54"
     inkscape:window-y="-8"
     inkscape:window-maximized="1"
     inkscape:current-layer="svg2" /><metadata
     id="metadata8"><rdf:RDF><cc:Work
         rdf:about=""><dc:format>image/svg+xml</dc:format><dc:type
           rdf:resource="http://purl.org/dc/dcmitype/StillImage" /><dc:title></dc:title></cc:Work></rdf:RDF></metadata><defs
     id="defs6" /><g
     id="g4528"
     transform="matrix(0.99955486,0,0,1,-43.860727,-40.133044)"><path
       inkscape:connector-curvature="0"
       d="m 197.02533,55.564004 c -1.05867,0 -1.80533,0.128 -2.55867,0.313333 v 0.125334 h 0.12134 c 0.504,0.996 1.37866,1.688 1.99733,2.56 0.50267,0.998666 0.94,1.993333 1.43867,2.993333 0.0613,-0.06133 0.12133,-0.126667 0.12133,-0.126667 0.88,-0.621333 1.316,-1.618666 1.316,-3.118666 -0.37733,-0.44 -0.436,-0.873334 -0.75067,-1.312 -0.37333,-0.622667 -1.18533,-0.934667 -1.68533,-1.434667"
       style="fill:#5b85a4;fill-opacity:1;fill-rule:evenodd;stroke:none;stroke-width:0.13333333"
       id="path16" /><path
       inkscape:connector-curvature="0"
       d="m 97.743198,178.744 h -8.644267 c -0.304667,-14.59067 -1.1468,-28.3104 -2.5244,-41.16253 h -0.07613 L 73.336931,178.744 H 66.755198 L 53.673465,137.58147 h -0.07707 c -0.9704,12.34267 -1.5808,26.06253 -1.8344,41.16253 h -7.881733 c 0.509333,-18.36413 1.783733,-35.57866 3.823866,-51.648 h 10.714133 l 12.471333,37.94947 h 0.07653 L 83.513998,127.096 h 10.2516 c 2.2448,18.81987 3.5704,36.04013 3.9776,51.648"
       style="fill:#2c7493;fill-opacity:1;fill-rule:nonzero;stroke:none;stroke-width:0.13333333"
       id="path18" /><path
       inkscape:connector-curvature="0"
       d="m 135.23466,140.6388 c -3.52013,19.1 -8.16333,32.9796 -13.92626,41.63853 -4.49067,6.67187 -9.41,10.00774 -14.76667,10.00774 -1.42813,0 -3.18907,-0.43014 -5.27867,-1.2848 V 186.396 c 1.0208,0.14947 2.21867,0.2292 3.59627,0.2292 2.49907,0 4.51307,-0.69067 6.04533,-2.0692 1.83494,-1.67973 2.7532,-3.56773 2.7532,-5.66 0,-1.42907 -0.71613,-4.36147 -2.14226,-8.79733 l -9.48694,-29.45987 h 8.49214 l 6.80893,22.03333 c 1.5296,5.00254 2.1676,8.4948 1.9124,10.48534 3.724,-9.9468 6.3256,-20.78693 7.80573,-32.51867 h 8.1868"
       style="fill:#2c7493;fill-opacity:1;fill-rule:nonzero;stroke:none;stroke-width:0.13333333"
       id="path20" /><path
       inkscape:connector-curvature="0"
       d="m 250.30666,178.744 h -24.55867 v -51.648 h 8.264 v 45.2948 h 16.29467 v 6.3532"
       style="fill:#f18513;fill-opacity:1;fill-rule:nonzero;stroke:none;stroke-width:0.13333333"
       id="path22" /><path
       inkscape:connector-curvature="0"
       d="m 188.564,168.41213 c -2.092,-3.36666 -3.14,-8.7692 -3.14,-16.21866 0,-13.0052 3.95466,-19.51253 11.86,-19.51253 4.13333,0 7.16666,1.55626 9.10666,4.6656 2.08933,3.36826 3.13733,8.724 3.13733,16.06933 0,13.10933 -3.95466,19.66666 -11.85999,19.66666 -4.132,0 -7.16667,-1.55466 -9.104,-4.6704 m 30.75733,11.5772 -9.49334,-4.68133 c 0.84534,-0.6932 1.648,-1.44107 2.37467,-2.3068 4.03067,-4.73853 6.048,-11.752 6.048,-21.03746 0,-17.0864 -6.708,-25.6344 -20.12266,-25.6344 -6.58,0 -11.708,2.16666 -15.38,6.50626 -4.032,4.74427 -6.04534,11.73134 -6.04534,20.96467 0,9.07853 1.784,15.73853 5.35467,19.9692 3.26533,3.824 8.188,5.73853 14.76933,5.73853 2.45734,0 4.712,-0.30253 6.76133,-0.90773 l 12.36267,7.19426 3.37067,-5.8052"
       style="fill:#f18513;fill-opacity:1;fill-rule:evenodd;stroke:none;stroke-width:0.13333333"
       id="path24" /><path
       inkscape:connector-curvature="0"
       d="m 173.10133,164.42787 c 0,4.38013 -1.60933,7.976 -4.81733,10.78946 -3.21067,2.80107 -7.524,4.20534 -12.92534,4.20534 -5.052,0 -9.948,-1.61627 -14.69066,-4.8224 l 2.21866,-4.43654 c 4.08134,2.04014 7.77467,3.05894 11.09067,3.05894 3.11067,0 5.54533,-0.69227 7.30667,-2.06 1.75733,-1.3776 2.81066,-3.29894 2.81066,-5.73587 0,-3.06667 -2.13866,-5.688 -6.06266,-7.88707 -3.62267,-1.988 -10.86267,-6.13853 -10.86267,-6.13853 -3.92267,-2.86146 -5.88933,-5.93173 -5.88933,-10.99053 0,-4.18387 1.46666,-7.56573 4.396,-10.13853 2.936,-2.57814 6.724,-3.8672 11.36266,-3.8672 4.79467,0 9.15467,1.2796 13.08134,3.8296 l -1.99467,4.4324 c -3.36,-1.42454 -6.67333,-2.1396 -9.94,-2.1396 -2.65067,0 -4.69333,0.6364 -6.11733,1.91666 -1.432,1.2692 -2.31734,2.90254 -2.31734,4.8932 0,3.0588 2.18534,5.712 6.22,7.9536 3.668,1.98907 11.08534,6.21987 11.08534,6.21987 4.03466,2.85626 6.04533,5.90146 6.04533,10.9172"
       style="fill:#f18513;fill-opacity:1;fill-rule:nonzero;stroke:none;stroke-width:0.13333333"
       id="path26" /><path
       inkscape:connector-curvature="0"
       d="m 260.67733,109.79547 c -4.99467,-0.12493 -8.86267,0.37347 -12.10667,1.74747 -0.936,0.374 -2.432,0.374 -2.56,1.55986 0.50267,0.4984 0.56267,1.3088 1.00267,1.9984 0.74666,1.248 2.05466,2.93027 3.24266,3.80627 1.31067,0.99893 2.62134,1.99373 3.996,2.8672 2.432,1.50413 5.17867,2.374 7.54667,3.8724 1.37733,0.8724 2.74533,1.9948 4.12267,2.93333 0.684,0.49894 1.11733,1.31147 1.99466,1.62027 v -0.18907 c -0.44,-0.55986 -0.56266,-1.37133 -0.99733,-1.99893 -0.62267,-0.6192 -1.248,-1.1844 -1.87333,-1.80573 -1.81067,-2.43334 -4.06,-4.55307 -6.488,-6.30054 -1.99867,-1.37653 -6.36934,-3.24893 -7.17734,-5.55093 0,0 -0.0653,-0.0661 -0.12666,-0.1276 1.37333,-0.12667 2.99866,-0.62667 4.308,-1.0052 2.11866,-0.56 4.05333,-0.43333 6.23733,-0.99333 1,-0.25147 1.99867,-0.5656 3.00133,-0.8724 v -0.5656 c -1.12933,-1.1208 -1.93733,-2.6208 -3.12266,-3.68067 -3.18,-2.7448 -6.67867,-5.42613 -10.29734,-7.676134 -1.93733,-1.2484 -4.43333,-2.055733 -6.49333,-3.1192 -0.74533,-0.375066 -1.992,-0.559866 -2.43067,-1.187466 -1.124,-1.3724 -1.75066,-3.179733 -2.56,-4.8048 -1.808,-3.4284 -3.55866,-7.233733 -5.116,-10.859066 -1.12266,-2.432 -1.80933,-4.864 -3.18266,-7.112 -6.43067,-10.610667 -13.41734,-17.034667 -24.15067,-23.338666 -2.30933,-1.312 -5.05467,-1.873334 -7.98533,-2.56 -1.56267,-0.06533 -3.12133,-0.186667 -4.68133,-0.248 -1,-0.438667 -2,-1.625334 -2.872,-2.186667 -3.55867,-2.245333 -12.728,-7.112 -15.35067,-0.685333 -1.68533,4.058666 2.496,8.050666 3.932,10.110666 1.06,1.433333 2.43467,3.058667 3.18,4.678667 0.43733,1.061333 0.56267,2.186666 1.00133,3.308 0.99734,2.745333 1.932,5.804 3.24534,8.363999 0.684,1.310667 1.432,2.685334 2.30533,3.865334 0.504,0.690666 1.37467,0.998666 1.56267,2.125333 -0.87067,1.246667 -0.93867,3.118667 -1.43734,4.68 -2.24533,7.052 -1.37333,15.788533 1.81067,20.967203 0.996,1.55986 3.37067,4.9932 6.55333,3.6796 2.808,-1.12134 2.184,-4.67854 2.99467,-7.796804 0.18666,-0.754133 0.0613,-1.248933 0.43466,-1.747466 v 0.126133 c 0.87334,1.7448 1.74934,3.425467 2.56,5.178667 1.93734,3.05467 5.304,6.238 8.11467,8.35773 1.49333,1.1276 2.68,3.05894 4.552,3.74747 v -0.18853 h -0.12267 c -0.376,-0.56 -0.936,-0.81147 -1.436,-1.2464 -1.12266,-1.124 -2.368,-2.49747 -3.24533,-3.7448 -2.62,-3.4932 -4.932,-7.36454 -6.98667,-11.35787 -1.00133,-1.939067 -1.87333,-4.0588 -2.68533,-5.992133 -0.37333,-0.745334 -0.37333,-1.871867 -0.99867,-2.245334 -0.93866,1.371334 -2.30799,2.5588 -2.99333,4.238534 -1.18666,2.686533 -1.31066,5.993199 -1.75066,9.427063 -0.248,0.0652 -0.12267,0 -0.248,0.124 -1.99467,-0.49893 -2.68134,-2.557864 -3.432,-4.299464 -1.872,-4.436533 -2.18667,-11.550266 -0.56134,-16.667599 0.43467,-1.308 2.312,-5.426667 1.56,-6.674667 -0.37733,-1.190666 -1.624,-1.870666 -2.30933,-2.810666 -0.80933,-1.185334 -1.688,-2.68 -2.244,-3.993333 -1.49867,-3.493334 -2.252,-7.364 -3.86933,-10.857334 -0.74934,-1.625333 -2.06267,-3.310666 -3.12,-4.805333 -1.188,-1.685333 -2.49734,-2.870666 -3.43467,-4.865333 -0.30933,-0.688 -0.74667,-1.812 -0.24933,-2.558667 0.12266,-0.5 0.376,-0.688 0.876,-0.813333 0.80666,-0.686667 3.11866,0.185333 3.928,0.56 2.31066,0.933333 4.24533,1.812 6.17733,3.12 0.87467,0.625333 1.81067,1.810667 2.932,2.125333 h 1.31333 c 1.996,0.433334 4.244,0.121334 6.11733,0.685334 3.30534,1.06 6.3,2.62 8.98534,4.305333 8.172,5.18 14.912,12.545333 19.46533,21.342666 0.75067,1.433333 1.06533,2.745333 1.75067,4.24 1.31066,3.064 2.93466,6.184 4.24266,9.1764 1.30934,2.933333 2.56,5.926133 4.43467,8.363599 0.93333,1.308267 4.67867,1.9948 6.364,2.681734 1.24533,0.55987 3.18267,1.05987 4.30667,1.74533 2.12133,1.30827 4.23866,2.80827 6.23866,4.24587 0.996,0.74893 4.11734,2.3072 4.30534,3.5572"
       style="fill:#2c7493;fill-opacity:1;fill-rule:evenodd;stroke:none;stroke-width:0.13333333"
       id="path28" /><path
       inkscape:connector-curvature="0"
       d="m 256.20533,178.7388 h 1.36933 v -5.2548 h 1.792 v -1.07333 h -5.02267 v 1.07333 h 1.86134 z m 10.42,0 h 1.29066 v -6.32813 h -1.94133 l -1.58,4.31346 -1.72,-4.31346 h -1.87067 v 6.32813 h 1.22134 v -4.81613 h 0.0693 l 1.80133,4.81613 h 0.93067 l 1.79867,-4.81613 v 4.81613"
       style="fill:#f18513;fill-opacity:1;fill-rule:nonzero;stroke:none;stroke-width:0.13333333"
       id="path30" /></g></svg>